<svg xmlns="http://www.w3.org/2000/svg" version="1.1" xmlns:xlink="http://www.w3.org/1999/xlink" xmlns:svgjs="http://svgjs.dev/svgjs" width="1000" height="1411" viewBox="0 0 1000 1411"><g transform="matrix(1,0,0,1,0.7828571428571536,0.5712550607287312)"><svg viewBox="0 0 175 247" data-background-color="#ffffff" preserveAspectRatio="xMidYMid meet" height="1411" width="1000" xmlns="http://www.w3.org/2000/svg" xmlns:xlink="http://www.w3.org/1999/xlink"><g id="tight-bounds" transform="matrix(1,0,0,1,-0.13700000000000045,-0.09999999999999432)"><svg viewBox="0 0 175.27390368271952 247.2" height="247.2" width="175.27390368271952"><g><svg></svg></g><g><svg viewBox="0 0 175.27390368271952 247.2" height="247.2" width="175.27390368271952"><g transform="matrix(1,0,0,1,0,47.215199999999996)"><svg viewBox="0 0 175.27390368271952 152.7696" height="152.7696" width="175.27390368271952"><g><svg viewBox="0 0 175.27390368271952 152.7696" height="152.7696" width="175.27390368271952"><g><svg viewBox="0 0 175.27390368271952 152.7696" height="152.7696" width="175.27390368271952"><g><svg viewBox="0 0 175.27390368271952 152.7696" height="152.7696" width="175.27390368271952"><g id="textblocktransform"><svg viewBox="0 0 175.27390368271952 152.7696" height="152.7696" width="175.27390368271952" id="textblock"><g><svg viewBox="0 0 175.27390368271952 152.7696" height="152.7696" width="175.27390368271952"><g transform="matrix(1,0,0,1,0,0)"><svg width="175.27390368271952" viewBox="1.2999999523162842 -34.5 40.5 35.29999923706055" height="152.7696" data-palette-color="#ba3b0a"><path d="M41.8-34.1L37.45-33.7 37.45-0.8 41.8-0.4 41.8 0 29.5 0 29.5-0.4 33.6-0.8 33.6-31.25 33.4-31.25 21.35 0.8 20.85 0.8 7.4-31.3 7.2-31.3 7.2-3.05Q7.2-1.85 7.5-1.38 7.8-0.9 8.7-0.8L8.7-0.8 12.25-0.4 12.25 0 1.3 0 1.3-0.4 4.9-0.8Q5.8-0.9 6.1-1.38 6.4-1.85 6.4-3.05L6.4-3.05 6.4-33.05Q6.05-33.65 5.53-33.88 5-34.1 4-34.1L4-34.1 1.7-34.1 1.7-34.5 10.25-34.5 22.55-5.15 22.75-5.15 33.75-34.5 41.8-34.5 41.8-34.1Z" opacity="1" transform="matrix(1,0,0,1,0,0)" fill="#ba3b0a" class="undefined-text-0" data-fill-palette-color="primary" id="text-0"></path></svg></g></svg></g></svg></g></svg></g><g></g></svg></g></svg></g></svg></g><path d="M0 41.215L0 1 175.274 1 175.274 41.215 161.497 41.215 161.497 14.777 13.777 14.777 13.777 41.215 0 41.215M0 205.985L0 246.2 175.274 246.2 175.274 205.985 161.497 205.985 161.497 232.423 13.777 232.423 13.777 205.985 0 205.985" fill="#ba3b0a" stroke="transparent" data-fill-palette-color="primary"></path></svg></g><defs></defs></svg><rect width="175.27390368271952" height="247.2" fill="none" stroke="none" visibility="hidden"></rect></g></svg></g></svg>